Coordinates
version=1
nRows=17
nColumns=24
inDegrees=yes

Units are S.I. units (second, meters, Newtons, ...)
Angles are in degrees.

endheader
time	pelvis_tilt	pelvis_list	pelvis_rotation	pelvis_tx	pelvis_ty	pelvis_tz	hip_flexion_r	hip_adduction_r	hip_rotation_r	knee_angle_r	ankle_angle_r	subtalar_angle_r	mtp_angle_r	hip_flexion_l	hip_adduction_l	hip_rotation_l	knee_angle_l	ankle_angle_l	subtalar_angle_l	mtp_angle_l	lumbar_extension	lumbar_bending	lumbar_rotation
      1.39466667	      5.69854893	      0.83519013	     -3.45319239	      0.93832897	      0.97107604	      0.30728711	    -31.61297659	     -0.84685393	     -1.69280508	     -2.92710528	     15.38863908	      0.84779333	     -0.16604507	     18.28453478	     -0.23438290	      3.62158753	      5.95712478	      3.17101253	     -6.93578885	     -1.28312092	    -19.23516972	      3.26954716	      8.90653173
      1.39883333	      5.63736474	      1.00942978	     -3.48356424	      0.94449043	      0.97022164	      0.30682455	    -31.72900309	     -1.08517224	     -1.81992420	     -3.27671381	     15.19147632	      0.90677214	      0.49530492	     18.44103853	     -0.00168798	      3.88623537	      5.33527212	      2.75947611	     -7.45322799	     -1.00995661	    -19.11183417	      3.01427699	      8.89117880
      1.40300000	      5.68928831	      1.23142226	     -3.50658001	      0.95070879	      0.96954388	      0.30637750	    -32.00288879	     -1.36431090	     -1.95127990	     -3.53905776	     14.84983375	      0.81226509	      4.26234894	     18.48104073	      0.29390950	      4.04441215	      4.68276833	      2.30696708	     -7.84469357	      0.54509734	    -19.11994153	      2.69342196	      8.81546422
      1.40716667	      5.55094622	      1.42202805	     -3.55807509	      0.95695566	      0.96869892	      0.30592017	    -32.00606019	     -1.62540062	     -2.01934200	     -3.94465824	     14.64103890	      0.82166685	      4.33969702	     18.77577497	      0.54617099	      4.10839502	      3.88782848	      1.91955325	     -8.13314346	      0.54942504	    -18.88619812	      2.40784545	      8.85808554
      1.41133333	      5.49786645	      1.65893325	     -3.59334131	      0.96325133	      0.96798915	      0.30545531	    -32.11078181	     -1.92282315	     -2.14383148	     -4.32801783	     14.34603185	      0.78130095	      4.39963516	     18.96257205	      0.85751258	      4.17892521	      3.12087208	      1.44607535	     -8.43448285	      0.55490470	    -18.75884546	      2.05411243	      8.82025694
      1.41550000	      5.40676020	      1.87477660	     -3.62027167	      0.96954839	      0.96727048	      0.30491862	    -32.14240674	     -2.20178338	     -2.29443563	     -4.77579130	     14.10117073	      0.85884369	      4.62194276	     19.17014384	      1.15728275	      4.41581453	      2.39069951	      0.71303784	     -9.16088943	      0.60198849	    -18.58795859	      1.77226029	      8.79704964
      1.41966667	      5.35287888	      2.12422444	     -3.65316577	      0.97589277	      0.96664574	      0.30440394	    -32.20796824	     -2.51296796	     -2.44855639	     -5.23120205	     13.75422221	      0.81569371	      4.98425181	     19.34411183	      1.49418477	      4.58195293	      1.63900637	     -0.00504783	     -9.76303809	      0.68600406	    -18.46560682	      1.42543369	      8.74455170
      1.42383333	      5.29972619	      2.39533433	     -3.68012838	      0.98229226	      0.96607392	      0.30390314	    -32.29378487	     -2.83591292	     -2.56649940	     -5.64102242	     13.35111285	      0.71550173	      5.08125550	     19.57070256	      1.85624266	      4.54282474	      0.76388857	     -0.60463385	     -9.99724904	      0.70260618	    -18.32610996	      1.03063970	      8.70093817
      1.42800000	      5.16814792	      2.63910017	     -3.69527450	      0.98867905	      0.96544941	      0.30332531	    -32.25047610	     -3.13177810	     -2.69548807	     -6.14089417	     12.99790735	      0.69552719	      5.48613229	     19.84473132	      2.19872271	      4.74418458	     -0.02783374	     -1.53995784	    -10.78027426	      0.80238162	    -18.10033865	      0.72278364	      8.66376683
      1.43216667	      5.12089282	      2.94662555	     -3.71351759	      0.99512974	      0.96497861	      0.30277909	    -32.31099934	     -3.48687104	     -2.85224263	     -6.60564968	     12.50005394	      0.56115814	      5.64269283	     20.08186558	      2.60876502	      4.70581604	     -0.94991597	     -2.18387018	    -11.01819799	      0.83166343	    -17.98707875	      0.29770467	      8.60214776
      1.43633333	      4.98604765	      3.19777107	     -3.71774575	      1.00154799	      0.96445387	      0.30215802	    -32.23181930	     -3.78393218	     -2.97941463	     -7.16031468	     12.06645025	      0.48024406	      6.23011333	     20.38080035	      2.97261414	      4.90797125	     -1.80614058	     -3.14112423	    -11.82402314	      0.95589186	    -17.74965868	     -0.01997317	      8.54172096
      1.44050000	      4.95870850	      3.52303212	     -3.72778548	      1.00804942	      0.96410059	      0.30157097	    -32.28728224	     -4.15609345	     -3.18511568	     -7.65270728	     11.37176353	      0.24562540	     13.93280537	     20.59889961	      3.41202468	      4.87806987	     -2.74213653	     -3.88372362	    -12.18427791	      2.58589158	    -17.64861324	     -0.46319746	      8.48440685
      1.44466667	      4.88851342	      3.83789050	     -3.72197703	      1.01457856	      0.96374335	      0.30096249	    -32.28587380	     -4.50438389	     -3.33844594	     -8.18371403	     10.78157533	      0.08111625	     13.95059775	     20.89094529	      3.84302399	      4.81220075	     -3.74894848	     -4.51575251	    -12.41331889	      2.56683950	    -17.48581678	     -0.88860448	      8.41532892
      1.44883333	      4.75082767	      4.11498038	     -3.71487392	      1.02106499	      0.96336546	      0.30030351	    -32.16516492	     -4.81805219	     -3.44351599	     -8.79767337	     10.19800431	     -0.10705584	     14.08625776	     21.24558556	      4.24292669	      4.90541215	     -4.74826307	     -5.26261060	    -12.94781082	      2.54124724	    -17.25595212	     -1.23302821	      8.35309691
      1.45300000	      4.69980052	      4.45036478	     -3.70576748	      1.02763476	      0.96312511	      0.29967070	    -32.15741796	     -5.18600741	     -3.60407752	     -9.36847407	      9.52375806	     -0.28088707	     14.16225414	     21.52440028	      4.70287834	      4.85426534	     -5.79519854	     -5.81690139	    -13.19376014	      2.52490091	    -17.11971117	     -1.68195370	      8.28695539
      1.45716667	      4.61994383	      4.76847568	     -3.69054412	      1.03421189	      0.96289846	      0.29900458	    -32.09264299	     -5.53496053	     -3.73889818	     -9.98641725	      8.82189648	     -0.48056453	     14.28457513	     21.84110033	      5.15039462	      4.84829501	     -6.87108734	     -6.34602698	    -13.49020559	      2.50507721	    -16.94932834	     -2.09871538	      8.22649756
      1.46133333	      4.54377820	      5.08165781	     -3.67082645	      1.04079470	      0.96271804	      0.29831356	    -32.01272386	     -5.87839644	     -3.86906041	    -10.63411602	      8.08205072	     -0.69790065	     14.43108930	     22.15837795	      5.59917527	      4.85550424	     -7.97452131	     -6.80266575	    -13.80352111	      2.48197991	    -16.78017932	     -2.50434432	      8.16736095
